<svg width="21" height="21" viewBox="0 0 21 21" fill="none" xmlns="http://www.w3.org/2000/svg">
<g clip-path="url(#clip0_73_290)">
<path d="M10.4999 8.59082V12.6572H16.1508C15.9026 13.9649 15.158 15.0722 14.0412 15.8168L17.4489 18.4609C19.4344 16.6282 20.5798 13.9364 20.5798 10.7387C20.5798 9.99412 20.513 9.27814 20.3889 8.59093L10.4999 8.59082Z" fill="#4285F4"/>
<path d="M4.61529 12.4985L3.84672 13.0869L1.12622 15.2059C2.85394 18.6327 6.39504 21 10.4996 21C13.3345 21 15.7113 20.0646 17.4486 18.461L14.0409 15.8168C13.1054 16.4468 11.9122 16.8287 10.4996 16.8287C7.76957 16.8287 5.4501 14.9864 4.61958 12.5046L4.61529 12.4985Z" fill="#34A853"/>
<path d="M1.12628 5.79419C0.410412 7.20686 0 8.80097 0 10.5C0 12.1991 0.410412 13.7932 1.12628 15.2059C1.12628 15.2154 4.61998 12.495 4.61998 12.495C4.40998 11.865 4.28585 11.1968 4.28585 10.4999C4.28585 9.80302 4.40998 9.13488 4.61998 8.50488L1.12628 5.79419Z" fill="#FBBC05"/>
<path d="M10.4998 4.18091C12.0462 4.18091 13.4207 4.71544 14.5184 5.74636L17.5252 2.73958C15.702 1.04052 13.3348 0 10.4998 0C6.39526 0 2.85394 2.35772 1.12622 5.7941L4.61981 8.50501C5.45021 6.02317 7.76979 4.18091 10.4998 4.18091Z" fill="#EA4335"/>
</g>
<defs>
<clipPath id="clip0_73_290">
<rect width="21" height="21" fill="white"/>
</clipPath>
</defs>
</svg>
